<svg xmlns="http://www.w3.org/2000/svg" version="1.1" xmlns:xlink="http://www.w3.org/1999/xlink" xmlns:svgjs="http://svgjs.dev/svgjs" width="547" height="588"><svg width="547" height="588" viewBox="0 0 547 588" fill="none" xmlns="http://www.w3.org/2000/svg">
<path d="M463.906 14.2187C475.667 24.1703 484.742 39.4405 486.191 55.0583C486.267 57.1473 486.278 59.2223 486.25 61.3125C486.242 62.0567 486.234 62.8009 486.225 63.5676C485.849 82.2262 478.519 97.6057 465.367 110.602C454.547 120.034 442.396 123.57 428.883 127.402C403.043 134.791 386.162 150.208 370.273 171.325C369.092 172.879 367.876 174.406 366.656 175.93C355.645 189.768 345.78 204.719 337 220.062C336.585 220.769 336.17 221.476 335.742 222.204C333.317 226.586 332.269 229.877 333 235C334.415 237.427 334.415 237.427 336.5 239.5C344.849 249.256 349.887 260.596 353 273C353.336 274.17 353.336 274.17 353.68 275.363C356.73 287.46 355.806 300.948 352.754 312.922C352.505 313.938 352.256 314.953 352 316C351.658 317.119 351.317 318.238 350.965 319.391C351.012 324.184 352.72 325.768 355.976 329.111C358.895 331.835 361.864 334.36 365.062 336.75C365.768 337.282 366.474 337.815 367.2 338.363C407.641 370.848 407.641 370.848 454.297 387.174C455.595 387.194 455.595 387.194 456.919 387.214C457.853 387.225 458.787 387.235 459.75 387.246C461.741 387.279 463.732 387.312 465.723 387.346C468.851 387.393 471.98 387.437 475.109 387.477C478.135 387.517 481.161 387.568 484.188 387.621C485.106 387.629 486.024 387.638 486.97 387.647C503.891 387.963 519.228 392.957 531.254 405.316C541.205 417.08 546.736 430.892 546.348 446.32C544.859 462.072 538.599 476.205 527 487C512.359 498.994 497.443 501.376 479 500C463.741 497.813 450.958 487.639 441.688 475.812C437.419 469.65 435.203 463.116 433 456C427.385 438 419.991 424.023 404.84 412.219C402.056 410.044 399.413 407.757 396.75 405.437C380.134 391.605 361.465 380.165 343 369C342.167 368.492 341.333 367.984 340.475 367.46C338.264 366.121 336.043 364.805 333.812 363.5C333.184 363.12 332.555 362.74 331.906 362.348C329.319 360.873 327.423 359.997 324.418 360.02C321.3 361.284 319.101 363.054 316.5 365.187C302.07 376.462 283.651 381.203 265.5 381.187C264.328 381.188 264.328 381.188 263.133 381.189C256.784 381.133 250.701 380.461 244.43 379.437C236.899 378.202 236.899 378.202 230.164 381.168C228.907 382.663 228.907 382.663 227.625 384.187C227.16 384.731 226.695 385.275 226.216 385.836C224.781 387.535 223.386 389.261 222 391C221.197 391.998 220.394 392.995 219.566 394.023C217.479 396.689 215.437 399.379 213.419 402.097C211.842 404.212 210.245 406.313 208.648 408.414C200.735 418.904 193.612 429.65 187 441C186.589 441.692 186.178 442.384 185.754 443.098C177.618 456.796 170.803 470.066 170.812 486.25C170.812 487.885 170.812 487.885 170.811 489.554C170.848 495.367 171.098 500.946 172 506.687C175.037 526.44 173.348 544.043 162 561C151.226 575.446 135.674 584.05 118 587C106.57 588.062 95.6571 587.515 85 583C83.4976 582.399 83.4976 582.399 81.9648 581.785C67.1067 575.171 56.3697 562.672 50.0664 547.84C46.4366 538.174 45.3901 529.299 46 519C46.087 517.409 46.087 517.409 46.1758 515.785C47.616 501.747 54.911 489.607 65 480C65.9533 479.053 65.9533 479.053 66.9258 478.086C76.8394 468.768 88.4613 464.088 101.548 461.315C116.454 458.123 128.194 453.156 139 442C139.723 441.263 140.446 440.525 141.191 439.766C151.643 428.622 160.337 415.86 168.645 403.078C170.127 400.805 171.626 398.543 173.125 396.281C178.675 387.874 184.061 379.398 189.125 370.687C189.799 369.533 189.799 369.533 190.486 368.354C196 359.27 196 359.27 197 349C195.494 346.345 195.494 346.345 193.375 343.875C182.206 329.272 176.577 311.147 176.688 292.812C176.689 291.451 176.689 291.451 176.691 290.062C176.788 283.198 177.693 276.876 179.344 270.227C180.312 265.468 181.025 261.716 178.457 257.418C175.395 254.404 172.151 251.847 168.688 249.312C167.979 248.789 167.27 248.266 166.54 247.727C150.887 236.256 134.475 225.864 116.938 217.5C116.284 217.186 115.631 216.872 114.958 216.548C106.32 212.556 98.3492 210.54 88.8203 210.777C87.8863 210.786 86.9523 210.795 85.99 210.805C83.0346 210.834 80.08 210.884 77.125 210.937C53.5142 211.324 34.6117 209.801 16.4375 193.125C4.59184 180.963 0.49886 166.157 0.500244 149.577C0.852273 133.913 7.36022 121.286 18.6719 110.437C32.0489 98.9499 46.3485 94.7688 63.7485 95.7929C74.434 96.7755 83.5206 100.481 92 107C92.8521 107.647 93.7041 108.294 94.582 108.961C105.757 118.196 111.96 130.307 115.875 144.078C121.197 162.438 129.854 175.481 145 187C146.221 187.948 147.443 188.896 148.664 189.844C162.454 200.454 176.954 209.785 192.261 218.053C193.844 218.915 195.411 219.808 196.977 220.703C200.658 222.727 203.278 223.948 207.5 224.25C211.619 222.779 214.512 220.619 218.016 218.039C232.758 207.967 247.934 203.697 265.688 203.562C266.816 203.552 267.944 203.542 269.107 203.531C275.84 203.602 281.797 204.44 288.257 206.359C291.295 207.069 293.89 207.227 297 207C299.573 205.23 299.573 205.23 301.812 202.687C302.676 201.77 303.54 200.852 304.43 199.906C307.609 196.311 310.673 192.647 313.664 188.895C315.703 186.368 317.803 183.91 319.936 181.463C340.839 157.345 362.941 123.474 362.02 90.3672C361.989 88.3229 361.96 86.2786 361.932 84.2343C361.876 81.0617 361.813 77.8898 361.733 74.7177C361.215 52.9461 365.006 35.7097 380.562 19.3125C404.289 -3.19735 437.793 -5.71733 463.906 14.2187Z" fill="#0A0A09"></path>
<path d="M42 207C48.75 206.875 48.75 206.875 51 208C52.8847 208.153 54.7743 208.25 56.6641 208.316C58.3463 208.379 58.3463 208.379 60.0625 208.443C61.2381 208.483 62.4138 208.522 63.625 208.562C64.8084 208.606 65.9917 208.649 67.2109 208.693C70.1405 208.8 73.0702 208.902 76 209C76 209.33 76 209.66 76 210C65.3693 212.025 53.444 211.963 43 209C42.67 208.34 42.34 207.68 42 207Z" fill="#0E0E0E"></path>
<path d="M481 42C481.66 42 482.32 42 483 42C485.436 49.497 486.411 56.1231 486 64C483.972 60.9578 483.53 59.3402 482.938 55.8125C482.774 54.8431 482.61 53.8737 482.441 52.875C481.886 49.2555 481.412 45.6386 481 42Z" fill="#11100F"></path>
<path d="M361 81C363.031 84.0468 363.247 84.6012 363.195 88.0117C363.189 88.769 363.182 89.5264 363.176 90.3066C363.159 91.0923 363.142 91.878 363.125 92.6875C363.116 93.4848 363.107 94.2821 363.098 95.1035C363.074 97.0691 363.038 99.0346 363 101C362.01 101 361.02 101 360 101C359.67 98.69 359.34 96.38 359 94C359.66 94 360.32 94 361 94C360.814 92.7831 360.629 91.5662 360.438 90.3125C360.01 86.9702 360.077 84.2803 361 81Z" fill="#DFDEDC"></path>
<path d="M48 96C50.9589 95.9193 53.9156 95.8597 56.875 95.8125C57.7168 95.7874 58.5585 95.7622 59.4258 95.7363C60.2314 95.7267 61.0371 95.717 61.8672 95.707C62.9826 95.6835 62.9826 95.6835 64.1206 95.6594C65.0509 95.828 65.0509 95.828 66 96C66.66 96.99 67.32 97.98 68 99C64.25 100.125 64.25 100.125 62 99C60.293 98.93 58.5833 98.9156 56.875 98.9375C55.9649 98.9465 55.0548 98.9555 54.1172 98.9648C53.4185 98.9764 52.7198 98.988 52 99C52 98.34 52 97.68 52 97C50.68 96.67 49.36 96.34 48 96Z" fill="#111110"></path>
<path d="M172 514C172.33 514 172.66 514 173 514C173 520.93 173 527.86 173 535C172.01 535.33 171.02 535.66 170 536C169.701 528.529 170.841 521.37 172 514Z" fill="#181817"></path>
<path d="M176 456C176.66 456.33 177.32 456.66 178 457C176.35 460.96 174.7 464.92 173 469C172.01 469 171.02 469 170 469C170.425 467.393 170.866 465.789 171.312 464.188C171.556 463.294 171.8 462.401 172.051 461.48C173.02 458.948 173.95 457.728 176 456Z" fill="#10100F"></path>
<path d="M111 138C111.33 138.99 111.66 139.98 112 141C112.99 141 113.98 141 115 141C115.67 143.124 116.336 145.249 117 147.375C117.371 148.558 117.743 149.742 118.125 150.961C119 154 119 154 119 156C118.34 156 117.68 156 117 156C114.243 151.205 113.467 147.414 113 142C112.34 142 111.68 142 111 142C111 140.68 111 139.36 111 138Z" fill="#171716"></path>
<path d="M424 374C425.65 374.33 427.3 374.66 429 375C429 375.66 429 376.32 429 377C429.908 376.917 430.815 376.835 431.75 376.75C435 377 435 377 437.375 379C437.911 379.66 438.447 380.32 439 381C433.198 380.025 428.16 378.987 423 376C423.33 375.34 423.66 374.68 424 374Z" fill="#E8E7E5"></path>
<path d="M392 10C392.99 10.33 393.98 10.66 395 11C391.89 14.2879 388.984 16.8374 385 19C384.67 18.01 384.34 17.02 384 16C385.261 14.9668 386.534 13.9488 387.812 12.9375C388.52 12.369 389.228 11.8005 389.957 11.2148C390.631 10.8139 391.305 10.413 392 10Z" fill="#10100F"></path>
<path d="M351 268C351.33 268 351.66 268 352 268C352.339 269.415 352.671 270.832 353 272.25C353.186 273.039 353.371 273.828 353.563 274.641C354 277 354 277 354 281C353.01 280.67 352.02 280.34 351 280C350.804 278.564 350.619 277.126 350.438 275.688C350.333 274.887 350.229 274.086 350.121 273.262C350 271 350 271 351 268Z" fill="#1A1A19"></path>
<path d="M543 437C543.33 437 543.66 437 544 437C544.33 442.94 544.66 448.88 545 455C544.01 454.67 543.02 454.34 542 454C542.33 448.39 542.66 442.78 543 437Z" fill="#131312"></path>
<path d="M250.188 379.375C251.274 379.486 252.361 379.597 253.48 379.711C254.312 379.806 255.143 379.902 256 380C256 380.33 256 380.66 256 381C250.25 382.125 250.25 382.125 248 381C247.67 381.66 247.34 382.32 247 383C245.02 382.34 243.04 381.68 241 381C244.644 378.571 245.929 378.917 250.188 379.375Z" fill="#E3E2E0"></path>
<path d="M332 230C335.254 232.834 336.521 234.686 337 239C337.66 239 338.32 239 339 239C339.33 240.32 339.66 241.64 340 243C338.333 241.333 336.667 239.667 335 238C334.402 237.505 333.804 237.01 333.187 236.5C331.49 234.355 331.785 232.65 332 230Z" fill="#F8F7F6"></path>
</svg><style>@media (prefers-color-scheme: light) { :root { filter: none; } }
@media (prefers-color-scheme: dark) { :root { filter: none; } }
</style></svg>