<svg width="716" height="647" viewBox="0 0 716 647" fill="none" xmlns="http://www.w3.org/2000/svg">
<path d="M349.314 31.2655C353.585 31.9797 355.359 34.53 357.897 37.5332C358.672 38.4139 358.672 38.4139 359.463 39.3123C360.985 41.0467 362.486 42.7951 363.984 44.5469C365.063 45.7784 365.063 45.7784 366.163 47.0347C367.507 48.5705 368.845 50.1114 370.176 51.6567C373.19 55.1325 376.248 58.5744 379.303 62.0195C384.192 67.5385 389.012 73.1009 393.774 78.7123C397.542 83.1403 401.39 87.5044 405.258 91.8584C410.759 98.0573 416.103 104.344 421.381 110.705C424.26 114.158 427.17 117.588 430.076 121.021C430.712 121.772 431.348 122.524 432.004 123.299C435.174 127.046 438.347 130.79 441.524 134.533C455.061 150.492 468.44 166.557 481.43 182.898C483.704 185.757 486.002 188.596 488.329 191.419C488.863 192.072 489.397 192.726 489.948 193.399C490.926 194.595 491.91 195.786 492.904 196.971C500.352 206.13 501.692 213.971 501.586 225.364C501.612 226.636 501.638 227.908 501.664 229.219C501.662 230.448 501.66 231.677 501.658 232.943C501.659 234.606 501.659 234.606 501.66 236.303C500.974 239.504 500.113 241.811 497.66 244.23C492.953 246.853 486.999 246.099 481.681 246.013C480.321 246.017 478.961 246.021 477.559 246.026C473.951 246.035 470.346 246.02 466.738 245.992C461.653 245.952 456.568 245.934 451.483 245.945C448.778 245.949 446.072 245.935 443.367 245.899C442.142 245.899 440.917 245.9 439.654 245.9C438.577 245.891 437.5 245.882 436.39 245.873C433.462 246.18 433.462 246.18 431.064 247.877C428.652 251.116 428.699 253.91 428.774 257.698C428.77 258.811 428.77 258.811 428.767 259.946C428.764 261.553 428.771 263.16 428.786 264.767C428.81 267.312 428.806 269.856 428.794 272.401C428.771 278.721 428.79 285.041 428.817 291.361C428.84 296.703 428.842 302.044 428.814 307.386C428.809 309.891 428.836 312.395 428.863 314.899C428.857 316.439 428.85 317.978 428.841 319.518C428.857 320.212 428.873 320.906 428.889 321.621C428.832 325.299 428.267 326.984 425.847 329.958C422.537 332.197 421.147 332.593 417.105 332.571C415.983 332.578 414.862 332.584 413.706 332.591C411.907 332.567 411.907 332.567 410.071 332.542C408.829 332.547 407.588 332.553 406.309 332.559C402.346 332.575 398.384 332.56 394.421 332.538C390.455 332.522 386.489 332.513 382.523 332.528C380.056 332.537 377.588 332.528 375.122 332.499C374.004 332.502 372.885 332.506 371.733 332.509C370.26 332.5 370.26 332.5 368.757 332.491C365.171 333.142 363.962 334.184 361.844 336.906C361.203 339.939 361.203 339.939 361.307 343.361C361.301 344 361.295 344.639 361.289 345.297C361.276 347.403 361.294 349.508 361.313 351.614C361.313 353.08 361.311 354.546 361.308 356.012C361.307 359.081 361.32 362.15 361.344 365.219C361.375 369.154 361.372 373.088 361.358 377.023C361.351 380.049 361.359 383.075 361.372 386.1C361.377 387.551 361.378 389.002 361.373 390.453C361.37 392.48 361.388 394.506 361.411 396.532C361.42 398.262 361.42 398.262 361.429 400.027C361.618 402.82 361.618 402.82 363.127 404.708C365.739 406.205 367.568 406.185 370.64 406.191C372.349 406.206 372.349 406.206 374.093 406.221C375.324 406.218 376.555 406.215 377.823 406.212C379.089 406.223 380.354 406.234 381.658 406.245C385.712 406.279 389.766 406.294 393.819 406.305C399.146 406.319 404.472 406.352 409.799 406.397C411.025 406.394 412.252 406.391 413.516 406.388C415.235 406.403 415.235 406.403 416.989 406.418C417.995 406.42 419 406.422 420.035 406.424C423.445 406.875 425.431 407.892 428.203 409.75C430.747 413.259 430.612 414.776 430.617 418.94C430.625 420.228 430.632 421.515 430.64 422.842C430.639 423.874 430.639 423.874 430.637 424.927C430.636 427.083 430.65 429.238 430.668 431.394C430.718 437.522 430.744 443.651 430.751 449.779C430.757 453.53 430.783 457.279 430.821 461.029C430.832 462.457 430.834 463.886 430.829 465.314C430.821 467.312 430.842 469.31 430.864 471.308C430.867 472.444 430.87 473.581 430.873 474.752C431.19 477.741 431.19 477.741 433.226 480.008C436.235 481.959 437.842 482.1 441.5 482.1C442.661 482.11 443.822 482.12 445.018 482.13C446.267 482.122 447.516 482.114 448.802 482.105C450.09 482.115 451.378 482.124 452.705 482.133C456.824 482.162 460.943 482.165 465.062 482.163C469.177 482.167 473.292 482.176 477.407 482.203C479.969 482.22 482.53 482.222 485.091 482.21C486.255 482.217 487.419 482.224 488.619 482.231C489.64 482.23 490.661 482.229 491.713 482.228C495.12 482.665 497.141 483.703 499.914 485.547C501.404 488.288 501.145 490.554 501.174 493.622C501.188 494.907 501.201 496.192 501.215 497.517C501.224 498.929 501.232 500.342 501.239 501.754C501.244 502.467 501.248 503.179 501.253 503.913C501.275 507.691 501.29 511.469 501.3 515.248C501.312 519.127 501.349 523.005 501.391 526.884C501.42 529.884 501.428 532.885 501.432 535.886C501.437 537.314 501.45 538.742 501.47 540.17C501.671 555.466 497.593 565.191 486.008 576.159C447.249 609.722 387.458 619.689 336.182 618.541C287.353 616.982 237.869 599.83 200.227 571.187C199.614 570.724 199.002 570.261 198.371 569.784C185.599 560.068 174.093 549.742 163.836 537.719C163.003 536.784 162.169 535.848 161.311 534.885C129.463 498.365 111.864 451.314 112.126 404.644C112.129 403.897 112.131 403.15 112.133 402.38C112.442 339.801 145.62 284.079 182.315 233.171C184.336 230.366 186.346 227.556 188.357 224.745C196.526 213.365 204.91 202.174 213.68 191.179C215.982 188.279 218.237 185.349 220.496 182.421C230.584 169.397 240.991 156.594 251.555 143.893C256.54 137.897 261.474 131.867 266.385 125.819C271.343 119.719 276.36 113.672 281.502 107.701C285.345 103.235 289.119 98.7237 292.876 94.1963C293.465 93.4863 294.054 92.7764 294.661 92.0449C295.819 90.6489 296.977 89.2527 298.135 87.8565C311.222 72.0828 324.582 56.5178 338.163 41.1016C338.776 40.4051 339.388 39.7086 340.019 38.991C340.596 38.3374 341.173 37.6837 341.767 37.0103C342.284 36.4234 342.801 35.8365 343.334 35.2318C346.445 31.8318 346.445 31.8318 349.314 31.2655Z" fill="#0B0A0A"/>
<path d="M463.473 327.745C464.784 327.73 466.095 327.714 467.446 327.698C468.878 327.691 470.311 327.686 471.743 327.682C473.214 327.673 474.684 327.664 476.154 327.655C479.237 327.638 482.319 327.631 485.402 327.628C489.345 327.623 493.288 327.586 497.231 327.541C500.269 327.511 503.306 327.504 506.344 327.503C507.797 327.499 509.251 327.487 510.704 327.466C523.502 327.3 523.502 327.3 527.003 330.419C529.626 334.115 530.029 335.999 530.089 340.399C530.106 341.542 530.124 342.686 530.141 343.864C530.189 349.101 530.233 354.338 530.258 359.575C530.272 362.339 530.302 365.101 530.345 367.865C530.408 371.844 530.427 375.823 530.443 379.803C530.467 381.037 530.492 382.271 530.517 383.542C530.491 393.103 530.491 393.103 527.373 396.733C523.327 399.85 520.452 400.033 515.342 400.065C514.117 400.074 512.891 400.084 511.629 400.093C510.305 400.098 508.98 400.102 507.615 400.106C506.255 400.112 504.894 400.117 503.492 400.123C500.611 400.132 497.73 400.139 494.849 400.143C491.165 400.148 487.481 400.172 483.797 400.2C480.275 400.223 476.754 400.224 473.232 400.229C471.251 400.247 471.251 400.247 469.231 400.266C467.999 400.263 466.767 400.26 465.497 400.257C464.416 400.261 463.335 400.264 462.221 400.268C458.705 399.841 456.733 398.879 453.891 396.953C451.115 393.124 451.251 389.786 451.081 385.325C451.043 384.414 451.005 383.503 450.965 382.565C450.635 373.426 450.502 364.281 450.433 355.138C450.419 353.447 450.4 351.755 450.376 350.063C450.344 347.655 450.333 345.248 450.329 342.839C450.315 342.115 450.302 341.391 450.289 340.645C450.309 336.262 450.93 333.484 453.891 330.016C457.604 327.739 459.088 327.785 463.473 327.745Z" fill="#0D0D0D"/>
<path d="M568.754 251.601C570.065 251.586 571.377 251.57 572.727 251.554C574.16 251.547 575.592 251.542 577.025 251.538C578.495 251.529 579.966 251.52 581.436 251.511C584.518 251.494 587.601 251.487 590.683 251.484C594.627 251.479 598.57 251.442 602.513 251.397C605.55 251.367 608.588 251.36 611.625 251.359C613.079 251.355 614.532 251.343 615.985 251.322C628.784 251.156 628.784 251.156 632.284 254.275C634.908 257.971 635.311 259.855 635.371 264.255C635.388 265.398 635.405 266.542 635.423 267.72C635.471 272.957 635.515 278.194 635.539 283.431C635.553 286.195 635.583 288.957 635.627 291.721C635.69 295.7 635.709 299.679 635.725 303.66C635.749 304.893 635.773 306.127 635.798 307.398C635.773 316.959 635.773 316.959 632.654 320.589C628.608 323.706 625.734 323.889 620.624 323.921C619.399 323.93 618.173 323.94 616.911 323.95C615.586 323.954 614.262 323.958 612.897 323.962C611.536 323.968 610.176 323.973 608.774 323.979C605.893 323.989 603.012 323.995 600.131 323.999C596.447 324.004 592.763 324.028 589.079 324.056C585.557 324.079 582.035 324.081 578.513 324.085C576.533 324.104 576.533 324.104 574.513 324.122C573.281 324.119 572.048 324.116 570.779 324.113C569.698 324.117 568.617 324.12 567.503 324.124C563.987 323.697 562.015 322.735 559.172 320.809C556.397 316.98 556.532 313.642 556.363 309.181C556.324 308.27 556.286 307.359 556.247 306.421C555.917 297.282 555.783 288.138 555.715 278.995C555.701 277.303 555.682 275.611 555.657 273.919C555.625 271.511 555.615 269.104 555.61 266.695C555.597 265.971 555.584 265.247 555.57 264.501C555.591 260.118 556.212 257.34 559.172 253.872C562.886 251.595 564.369 251.641 568.754 251.601Z" fill="#0D0D0D"/>
<path d="M542.367 430.148C543.605 430.154 543.605 430.154 544.867 430.16C545.714 430.159 546.561 430.157 547.434 430.155C549.226 430.153 551.019 430.157 552.811 430.165C555.559 430.176 558.307 430.165 561.056 430.153C562.795 430.154 564.534 430.157 566.273 430.16C567.099 430.156 567.924 430.152 568.774 430.148C574.59 430.196 574.59 430.196 576.977 432.391C577.191 435.263 577.276 438.039 577.261 440.912C577.264 442.179 577.264 442.179 577.267 443.471C577.269 445.259 577.265 447.046 577.256 448.833C577.244 451.575 577.256 454.316 577.269 457.058C577.268 458.792 577.265 460.526 577.261 462.26C577.265 463.084 577.27 463.907 577.274 464.755C577.223 470.555 577.223 470.555 574.836 472.75C571.945 472.947 569.165 473.025 566.273 473.011C565.426 473.013 564.579 473.015 563.706 473.017C561.914 473.019 560.122 473.015 558.33 473.007C555.581 472.996 552.833 473.007 550.085 473.019C548.346 473.018 546.606 473.015 544.867 473.011C543.63 473.017 543.63 473.017 542.367 473.024C536.551 472.976 536.551 472.976 534.164 470.781C533.95 467.909 533.865 465.133 533.88 462.26C533.878 461.416 533.876 460.571 533.874 459.701C533.872 457.913 533.876 456.126 533.885 454.339C533.896 451.597 533.885 448.856 533.871 446.114C533.873 444.38 533.876 442.646 533.88 440.912C533.875 440.088 533.871 439.265 533.867 438.416C533.927 431.618 534.874 430.209 542.367 430.148Z" fill="#131312"/>
<path d="M114.602 371.359C115.661 371.359 116.721 371.359 117.812 371.359C117.812 372.984 117.812 374.608 117.812 376.281C117.459 376.281 117.106 376.281 116.742 376.281C116.036 382.128 115.329 387.976 114.602 394C113.895 394 113.189 394 112.461 394C112.613 391.334 112.769 388.668 112.929 386.002C112.992 384.879 112.992 384.879 113.057 383.733C113.312 379.544 113.748 375.49 114.602 371.359Z" fill="#181718"/>
<path d="M457.102 395.969C460.915 395.94 464.727 395.923 468.541 395.907C470.158 395.895 470.158 395.895 471.808 395.882C472.853 395.879 473.898 395.876 474.975 395.873C476.413 395.865 476.413 395.865 477.879 395.857C480.687 395.97 483.263 396.38 486 396.953C486 397.278 486 397.603 486 397.937C476.11 398.262 466.221 398.587 456.031 398.922C456.384 397.947 456.738 396.973 457.102 395.969Z" fill="#131213"/>
<path d="M114.602 423.531C118.009 428.233 118.009 428.233 117.449 431.664C117.132 432.846 117.132 432.846 116.809 434.052C116.497 435.245 116.497 435.245 116.178 436.463C116.011 437.068 115.844 437.673 115.672 438.297C115.319 438.297 114.965 438.297 114.602 438.297C114.393 436.206 114.194 434.114 114 432.021C113.888 430.857 113.776 429.692 113.661 428.492C113.531 425.5 113.531 425.5 114.602 423.531Z" fill="#161414"/>
<path d="M118.883 352.656C121.023 355.609 121.023 355.609 121.023 359.547C121.73 359.872 122.436 360.197 123.164 360.531C119.15 362.5 119.15 362.5 116.742 362.5C117.449 359.252 118.155 356.003 118.883 352.656Z" fill="#141314"/>
<path d="M264.445 603.672C272.349 603.308 272.349 603.308 275.684 605.148C276.213 605.636 276.743 606.123 277.289 606.625C273.752 607.731 271.883 607.507 268.459 606.194C267.703 605.911 266.947 605.628 266.168 605.337C265.599 605.112 265.031 604.888 264.445 604.656C264.445 604.331 264.445 604.007 264.445 603.672Z" fill="#110F10"/>
<path d="M350.07 31.75C354.572 33.2288 356.213 35.9685 358.633 39.625C355.422 39.625 355.422 39.625 353.147 37.9023C351.177 35.7271 350.498 34.5054 350.07 31.75Z" fill="#121212"/>
<path d="M451.75 148.891C452.456 148.891 453.163 148.891 453.891 148.891C455.504 150.829 455.504 150.829 457.235 153.32C457.812 154.143 458.389 154.965 458.983 155.812C459.422 156.452 459.86 157.091 460.312 157.75C459.253 157.75 458.193 157.75 457.102 157.75C451.75 152.599 451.75 152.599 451.75 148.891Z" fill="#111211"/>
<path d="M140.289 300.484C141.349 300.484 142.408 300.484 143.5 300.484C143.853 301.459 144.206 302.433 144.57 303.438C144.217 304.087 143.864 304.737 143.5 305.406C140.222 306.021 140.222 306.021 137.078 306.391C138.138 304.442 139.197 302.492 140.289 300.484Z" fill="#151414"/>
<path d="M451.75 591.859C452.103 592.509 452.456 593.159 452.82 593.828C454.233 593.503 455.646 593.178 457.102 592.844C454.572 595.33 453.179 596.671 449.609 597.766C449.609 596.141 449.609 594.517 449.609 592.844C450.316 592.519 451.022 592.194 451.75 591.859Z" fill="#171617"/>
<path d="M183.102 556.422C185.574 556.747 188.046 557.072 190.594 557.406C190.594 559.355 190.594 561.304 190.594 563.312C189.342 562.352 188.094 561.387 186.848 560.421C186.152 559.884 185.457 559.347 184.74 558.794C184.2 558.336 183.659 557.878 183.102 557.406C183.102 557.081 183.102 556.757 183.102 556.422Z" fill="#171516"/>
<path d="M172.398 543.625C175.047 544.112 175.047 544.112 177.75 544.609C178.103 546.558 178.456 548.508 178.82 550.516C177.761 550.516 176.701 550.516 175.609 550.516C174.55 548.242 173.49 545.968 172.398 543.625Z" fill="#121211"/>
<path d="M309.398 74.0781C309.398 77.0312 309.398 77.0312 309.398 77.0312V74.0781ZM307.258 77.0312C308.317 77.6809 309.377 78.3306 310.469 79C308.35 79.9745 308.35 79.9745 306.188 80.9688C306.188 78.0156 306.188 78.0156 307.258 77.0312ZM302.977 81.9531C303.33 82.6028 303.683 83.2525 304.047 83.9219C303.34 83.597 302.634 83.2722 301.906 82.9375C302.259 82.6127 302.613 82.2878 302.977 81.9531Z" fill="#121213"/>
<path d="M128.516 324.109C129.222 324.434 129.928 324.759 130.656 325.094C130.48 325.683 130.303 326.271 130.121 326.878C129.467 329.143 129.467 329.143 129.586 331.984C128.526 331.335 127.467 330.685 126.375 330.016C127.081 328.067 127.788 326.117 128.516 324.109Z" fill="#141314"/>
</svg>
